<?xml version="1.0" encoding="UTF-8"?>
<svg xmlns="http://www.w3.org/2000/svg" width="733.85" height="1054.34" viewBox="0 0 733.85 1054.34">
  <defs>
    <style>
      .cls-1 {
        fill: #385eaa;
        stroke: #000;
        stroke-miterlimit: 10;
      }
    </style>
  </defs>
  <g id="perimetro">
    <path class="cls-1" d="M112.91,852.72c4.38-.74,16.94,17.49,21.27,21.31,9.07,8.01,22.44,14.04,32.23,22.49,12.59,10.86,21.65,25.21,34.24,36.11s27.11,18.87,41.7,26.38c-5.85,17.45-25.98,65.36-42.73,72.35-8.47,3.53-19.52,3.84-29.28,7.86-9.82,4.04-18.78,13.6-28.62,14.52-12.46,1.17-19.95-8.08-31.9-10.77-12.84-2.89-32.82-.88-43.82-6.99-1.75-.97-25.97-26.71-27.54-29.13-23.21-35.91,18.31-86.84,40.03-114.15,10.88-13.69,22.9-26.79,34.42-39.96ZM196.49,945.66c-14.3-17.48-51.12-44.4-73.38-48.84-11.37-2.27-24.15-3.18-32.95,5.57-1.49,1.48-14.43,18.85-6.87,16.59,5.63-1.69,9.93-6.09,18.14-7.27,32.33-4.65,71.5,21.1,97.23,38.55,4.38-3.63-1.34-3.6-2.16-4.6ZM71.11,937.08c-6.35,6.56-.11,18.96,9.29,14.22,10.95-5.52-1.08-22.7-9.29-14.22ZM94.64,980.93c11.61,9.54,28.72-9.78,16.95-19.85-14.28-12.21-30.21,8.96-16.95,19.85ZM211.53,962.19c-4.39,3.04-1.12,17.04,7.61,12.59,10.03-5.11-1.75-16.64-7.61-12.59ZM54.98,963.95v32.24c0,.77,3.99,9.21,4.97,10.66,19.2,28.17,102.85,22.9,129.9,4.97-40.34,2.07-90.19,11.02-121.14-21.55l-13.73-26.32ZM137.65,988.74c11.69,9.77,24.09-11.61,11.16-17.97-11.38-5.59-20.85,9.88-11.16,17.97ZM191.52,973.99c-4.53-7.08-20.6,3.43-10.63,11.63,7.65,6.28,13.85-6.6,10.63-11.63Z"/>
    <path class="cls-1" d="M624.84,852.65l34.02,38.09c22.07,29.56,66.61,79.92,40,118.03-2.52,3.61-21.67,23.9-24.86,25.94-12.26,7.85-30.51,5.11-44.51,8.26-8.75,1.97-12.08,5.99-18.97,8.39-21.57,7.51-24.82-5.3-41.53-12.17-9.23-3.8-20.94-4.22-29.31-7.82-17.94-7.72-36.96-53.53-42.74-72.1,21.75-11.33,39.3-23.76,56.39-41.28,3.6-3.68,5.71-9.49,9.74-13.71,17.45-18.24,46.06-29.62,61.77-51.64ZM660.86,920.95c-16.09-37.99-44.35-28.53-73.63-12.04-18.58,10.47-35.8,25.09-49.5,41.35,15.09-6.6,28.1-17.33,42.94-24.46,14.67-7.05,37.16-15.94,53.57-14.4,10.12.95,17.32,7.13,26.62,9.55ZM668.19,937.09c-5.06-5.05-16.74-1.41-14.33,7.37,4.72,17.17,23.92,2.21,14.33-7.37ZM630.95,958.47c-9.73,2.98-9.27,19.46.64,24.01,19.31,8.87,25.65-32.07-.64-24.01ZM547.52,1012.77c33.5,13.69,77.09,20.02,111.93,7.4,28.79-10.43,26.92-33.81,22.9-60.12l-3.79,14.75c-20.13,49.35-81.69,39.58-124.24,36.06-2.14-.18-7.29-1.42-6.79,1.91ZM519.41,962.15c-6.98,2.25-1.93,15.58,5.37,13.4,7.79-2.33,5.04-16.75-5.37-13.4ZM591.91,970.16c-8.61,2.52-9.49,14.06-2.16,18.96,15.56,10.41,21.87-24.72,2.16-18.96ZM548,974.22c-6.64,6.51,4.16,19.39,11.41,10.41,6.39-7.91-4.42-17.26-11.41-10.41Z"/>
    <path class="cls-1" d="M368.99,925.32c6.91-.61,63.17,38.98,63.17,43.52-6.79,7.6-17.23,5.51-25.49,7.7-13.79,3.66-27.61,17.36-36.1,28.45-11.4-6.1-17.8-19.46-29.58-25.08-11.26-5.37-24.41-2.48-33.84-11.07,17.72-18.08,39.21-32.36,61.84-43.52ZM351.58,952.71c-8.34-8.34-23.23,5.17-13.09,14.09,9.17,8.07,20.99-6.2,13.09-14.09ZM392.55,950.55c-8.36,2.26-7.56,19.84,3.19,18.83,13.56-1.27,11.51-22.8-3.19-18.83ZM375.21,970.12c-.93-1.5-8.53-3.43-10.54-.41-10.03,15.11,19.29,14.53,10.54.41Z"/>
    <path class="cls-1" d="M682.37,747.11c-5.78,8.93-8.09,19.76-12.96,29.03-13.17,25.08-33.59,35.69-51.6,55.88-12.02,13.48-20.43,29.65-35.3,40.91-7.64,5.79-16.73,8.64-24.28,14.49-5-7.17-26.6-25.06-29.34-30.94-.99-2.13-1.76-3.8-.04-5.88,47.93-30.46,81.03-76.91,116.37-120.28l37.14,16.79ZM651.05,768.61c-4.78-3.54-12.84,3.95-7.74,7.73,4.78,3.54,12.84-3.95,7.74-7.73ZM631.28,795.66c5.25-8.37-8.42-19.27-14.45-9.53-6.27,10.12,10.98,15.08,14.45,9.53ZM606.15,815.44c1.58,2.24,11.93,2.96,9.75-4.85-1.94-6.96-13.61-.63-9.75,4.85ZM560.23,848.69c-5.11,1.37-2.78,9.57,3.87,7.78,5.11-1.37,2.78-9.57-3.87-7.78Z"/>
    <path class="cls-1" d="M725.32,563.44c3.38,21.5,10.19,42.86,7.36,64.92-1.47,11.45-7.61,21.73-10.26,32.73-5.23,21.64-3.55,45.99-19.65,64.38-4.87,5.56-12.61,7.94-15.65,15.87-10.8-5.85-22.52-10.05-33.55-15.33-1.89-.91-3.26.59-2.24-3.08,1.4-5.03,13.87-20.69,17.69-29.24,14.36-32.17,21.85-84.57,19.26-119.58-.19-2.63-1.07-4.46-2.01-6.76l39.05-3.9ZM717.53,577.1c-5.2-4.96-15.24,7.15-4.84,9.75,4.81,1.2,6.04-8.61,4.84-9.75ZM719.49,600.54c-1.06-1.18-11,.03-9.75,4.85,2.34,9.02,15.01.96,9.75-4.85ZM703.2,641.84c-6.15,2.08-6.29,9.7.04,13.21,12.43,6.9,15.87-18.59-.04-13.21Z"/>
    <path class="cls-1" d="M48.86,565.62c-2.21,55.21,7.15,110.19,37.45,156.95l-34.63,14.42c-30.63-14.7-28.4-46.6-34.74-74-2.96-12.8-9.7-24-10.89-37.96-1.99-23.41,5.65-44.61,7.89-67.49l34.93,8.09ZM24.21,637.15c7.78,7.78,16.69-7.41,7.34-12.26-7.49-3.88-12.01,7.59-7.34,12.26ZM36.65,655.39c-5.4,1.76-5.47,16.25,5.24,13.22,9.78-2.77,4.03-16.23-5.24-13.22ZM52.36,698.68c-10.92.95-9.14,18.17,1.54,17.22,9.98-.89,9.49-18.17-1.54-17.22Z"/>
    <path class="cls-1" d="M89.27,728.01l60.71,89.2,53.54,40.29-25.46,25.48c-28.42-4.76-40.25-32.63-57.57-51.91-16.31-18.15-35.6-27.63-48.24-49.47-6.95-12.01-9.66-25.63-17.24-37.33l34.27-16.26ZM95.76,768.84c-3.55-5.68-15.99,2.07-10.61,9.61,4.95,6.93,15.12-2.4,10.61-9.61ZM108.75,786.17c-3.93,1.1-3.93,8.63,0,9.73,8.99,2.52,8.99-12.25,0-9.73Z"/>
    <path class="cls-1" d="M101.75,399.44c-6.47,19.62-17.1,38.32-24.78,57.98-8.96,22.95-15.11,44.4-21.04,68.85-2.17,8.95-3.82,18.24-4.87,27.39l-35.25-6.77c-5.12-18.02.3-41.69,7.55-59.05,2.85-6.83,9.01-14.33,11.12-20.14,3.46-9.54,3.03-22.6,5.89-33.19,5.29-19.56,17.44-35.56,26.37-52.8l35.01,17.74ZM68.84,409.23c-5.3,7.41,9.43,14.19,11.54,6.6,1.95-7.02-8.62-10.67-11.54-6.6Z"/>
    <path class="cls-1" d="M723.41,559.5l-37.15,1.97c-5.13-57.3-18.2-115-48.85-164.11,9.4.45,26.2-10.62,34.16-9.83,9.58.96,25.1,39.32,27.39,48.9,5.82,24.28,4.4,24.61,15.05,47.48,10.91,23.45,13.45,50.22,9.4,75.6ZM699.95,493.06c3.87-5.48-7.8-11.81-9.75-4.85-2.18,7.81,8.17,7.09,9.75,4.85ZM704.86,514.58c-3.93,1.1-3.93,8.63,0,9.73,8.99,2.52,8.99-12.25,0-9.73Z"/>
    <path class="cls-1" d="M398.98,932.66l36.48-13.32c31.59-16.34,58.48-40.23,85.66-62.83l32.11,32.47c.49,2.8-31.93,39.26-37.08,42.64-10.11,6.63-26.94,9.36-38.38,14.39-8.86,3.89-27.92,18.46-33.32,19.59-7.37,1.54-12.93-9.88-19.15-15.28-7.62-6.6-16.95-13.73-26.32-17.66ZM523.88,891.83c-2.47-3.39-12.27-1.07-11.42,4.46,1.46,9.5,17.2,3.47,11.42-4.46Z"/>
    <path class="cls-1" d="M338.38,930.75c-6.28,7.88-15.95,12.03-23.48,18.52-3.78,3.26-13.09,15.73-14.02,16.27-5.6,3.27-26.89-13.47-34.12-16.94-15.25-7.33-36.86-10.39-49.41-20.95-11.66-9.81-20.04-27.82-33.02-36.31-.93-1.25-.55-2.82-.07-4.21,1.22-3.57,23.78-25.6,27.65-24.57,23.35,16.67,47.12,33.33,72.39,47.01,16.07,8.69,35.83,20.65,54.08,21.17ZM257.75,915.58c-6.49-5.49-14.84,3.25-10.4,9.43,5.7,7.94,17.97-3.03,10.4-9.43Z"/>
    <path class="cls-1" d="M363.79,254.7v-38.1c9.2-4.66,27.05-3.69,38.09-2.91,42.09,3,67.71,17.17,104.63,32.17,19.8,8.04,42.54,8.31,56.09,29.32-3.35,5.1-14.67,30.53-19.61,30.08-56.14-28.68-114.67-52.26-179.2-50.57Z"/>
    <path class="cls-1" d="M357.92,213.67v41.03h-47.88c-5.92,0-50.89,15.68-59.01,19.16-18.41,7.88-33.59,20.73-50.46,31.17l-26.37-30.76c9.5-4.56,14.65-12.52,24.67-17.38,11.47-5.56,25.85-8.08,37.84-12.98s22.84-12.11,36.15-16.61c26.51-8.97,57.11-14.3,85.06-13.64ZM266.01,246.95c-4.85-6.19-15,7.24-6.76,9.69,6.42,1.91,8.6-7.35,6.76-9.69Z"/>
    <path class="cls-1" d="M172.05,278.29l23.65,33.03c-32.91,23.49-65.76,50.43-89.85,83.2l-34.42-16.7c-2.33-3.63,10.02-20.83,12.9-24.41,13.22-16.44,29.59-30.07,44.1-47.74,11.17-13.6,27.03-22.15,43.6-27.38ZM166.34,309.46c-3-1.99-11.57.75-9.71,6.77.86,2.79,8.03,4.05,9.71,2.9,1.14-.78,1.14-8.92,0-9.68ZM140.5,329.44c-7.5-7.37-20.12,3.47-12.72,10.74s20.12-3.47,12.72-10.74ZM109.51,364.34c-4.74-3.28-13.37.48-11.52,6.6l11.71,2.96-.2-9.56Z"/>
    <path class="cls-1" d="M670.64,381.67l-35.27,12.78c-20.72-34.51-49.38-59.37-82.17-82.03-1.96-1.63-1.66-2.83-1.03-5.01,2.25-7.82,15.03-19.91,16.88-29.26,16.98,7.13,29.68,15.61,42.03,29.25,3.29,3.63,4.42,8.22,7.71,11.83,18.3,20.05,42.74,33.92,51.85,62.44ZM585.87,305.63c-4.44.73-7.54,10.16-2.17,11.59,9.68,2.57,10.56-12.97,2.17-11.59Z"/>
    <path class="cls-1" d="M139.75,283.55c-4.95,3.08-11.07,3.95-15.42,6.71-20.66,13.12-36.45,27.73-52.02,46.67-16.98-9.48-57.88-37.55-61.74-56.69-1.8-8.93.2-20.48-1.61-30.29-3.28-17.76-15.14-23.59-3.35-43.14,3.77-6.25,8.39-8.67,12.12-16.83,5.97-13.04,7.05-31.47,17.26-41.85,2.66-2.71,26.46-17.26,30.51-18.98,42.78-18.19,82.88,35.78,107.25,63.47l30.26,41.14c-24.78,10.83-41.82,36.48-63.26,49.79ZM147.47,212.44c-1.87,16.37-15.22,36.54-25.14,49.45-10.04,13.05-23.22,23.57-32.79,36.98,18.74-10.05,36.59-23.89,50.66-39.91,22.18-25.25,37.26-50.95,3.4-74.53.46,9.6,5.02,17.92,3.86,28.02ZM119.16,186.42c8.09,4.17,14.06-6.51,10.17-12.5-7.39-11.37-26,4.34-10.17,12.5ZM77.36,200.38c2.41,10.64,18.44,14.48,23.36,5.58,13.31-24.07-28.05-26.3-23.36-5.58ZM33.65,270.15c5.33-42.36,8.46-104.62,60.9-114.14l15.21-.67c-24.91-9.36-47.4-16.01-63.55,10.01-19.54,31.49-22.32,75.44-15.84,111.05,3.16,1.18,3-4.12,3.27-6.25ZM62.12,306.33c-3.63,6.69,8.36,14.38,12,8.01,5.43-9.49-8.12-15.16-12-8.01ZM62.23,239.95c3.29,8.19,14.76,9.7,19,1.8,9.7-18.1-25.97-19.17-19-1.8ZM60.37,270.57c-10.28,5.24.1,18.47,7.83,13.31,8.15-5.43,1.23-17.93-7.83-13.31Z"/>
    <path class="cls-1" d="M527.77,226.68l30.58-40.9c24.59-27.5,65.12-81.14,107.75-62.61,4.04,1.76,27.72,16.49,30.36,19.22,10.12,10.46,11.06,28.89,16.92,41.99,3.67,8.19,8.27,10.65,11.99,16.92,11.64,19.65-.27,25.38-3.69,43.12-1.89,9.8.02,21.36-1.85,30.28-4.01,19.11-45.13,46.85-62.19,56.2-15.42-19.07-31.09-33.8-51.64-47.09-4.32-2.79-10.44-3.72-15.37-6.83-21.33-13.48-38.17-39.27-62.86-50.3ZM587.56,177.83c-34.04,23.3-19.17,49.13,2.8,74.55,13.95,16.14,31.69,30.12,50.34,40.32-9.46-13.49-22.56-24.11-32.49-37.24-9.82-12.98-23-33.26-24.74-49.65-1.08-10.11,3.55-18.39,4.08-27.99ZM601.93,167.44c-3.94,5.96,1.94,16.69,10.07,12.58,15.89-8.04-2.58-23.89-10.07-12.58ZM630.28,199.71c4.85,8.94,20.91,5.23,23.4-5.39,4.86-20.68-36.52-18.78-23.4,5.39ZM700.05,270.7c6.77-35.55,4.34-79.53-14.95-111.17-15.94-26.15-38.48-19.68-63.47-10.52l15.2.79c52.36,9.94,55,72.22,59.99,114.62.25,2.13.05,7.43,3.22,6.28ZM656.01,308.3c3.59,6.4,15.65-1.2,12.07-7.92-3.82-7.17-17.42-1.62-12.07,7.92ZM649.48,235.64c4.17,7.94,15.66,6.52,19.01-1.64,7.11-17.32-28.57-16.53-19.01,1.64ZM662.17,277.88c7.69,5.22,18.18-7.92,7.94-13.25-9.02-4.69-16.05,7.75-7.94,13.25Z"/>
    <path class="cls-1" d="M463.45,215.61c-19.22-2.84-38.21-10.13-57.68-11.68-30.25-2.41-71.04-1.11-100.64,4.83-10.51,2.11-21.21,5.04-31.23,8.81,16.23-31.19.54-58.72-1.71-89.14-1.99-26.85,7.93-36.58,14.83-58.91,4.54-14.69,3.37-34.63,17.12-45.41,7.46-5.85,11.87-2.44,19.12-4.33s21.7-14.97,33.07-17.74,20.4-1.74,30.86,1.65c9.55,3.1,20.66,13.74,27.32,15.68,9.14,2.65,13.84-1.72,22.37,6.94,11.95,12.13,9.39,27.32,13.85,40.87,5.32,16.17,14.99,29.69,16.41,48.07,1.94,25.04-12.28,51.85-9.32,77.71.89,7.76,5.24,14.82,5.64,22.67ZM334.25,33.73c7.53-4.65-12.63-19.54-7.41,0,1.02.58,6.45.59,7.41,0ZM405.83,24.17c-3.93,1.1-3.93,8.63,0,9.73,8.99,2.52,8.99-12.25,0-9.73ZM438.06,116.96c1.19,10.05-.87,21.95,0,32.24,2.8.44,2.84-3.45,3.34-5.43,5.24-20.95,2.07-46.6-11.21-63.88-12.2-15.87-22.5-22.53-34.19-42.1-1.48-2.48.39-4.96-4.85-3.85,5.68,34.7,42.86,48.84,46.91,83.02ZM295.38,107.19c-1.26,9.33,0,23.2,0,33.22,0,.39,1.82,7.61,3.89,6.83-.03-15.29.23-33.21,6.14-47.6,8.33-20.27,37.98-35.99,38.81-61.81-.75-1-11.95,16.27-13.71,18.51-12.7,16.1-32.19,29.03-35.13,50.85ZM357.71,39.97c-.96-.59-6.39-.59-7.41,0-5.22,19.55,14.94,4.65,7.41,0ZM382.37,39.8c-3.93,1.1-3.93,8.63,0,9.73,8.99,2.52,8.99-12.25,0-9.73ZM316.12,43.86c-7.51,2.4-1.75,16.63,6.74,10.68,4.8-3.37,1.7-13.38-6.74-10.68ZM414.61,55.4c.63.63,7.53.28,8.92-1.81,3.19-20.37-15.32-4.66-8.92,1.81ZM298.33,61.29c-6.12,1.65-.28,10.69,3.86,9.74,4.98-1.14,3.74-11.79-3.86-9.74ZM345.62,61.49c-10.68,2.75-8.59,21.11,5.05,17.02,10.78-3.23,2.8-19.04-5.05-17.02ZM396.52,63.7c-7.74-7.97-21.07,8.4-11.25,14.19,11.87,7,17.83-7.42,11.25-14.19ZM434.16,71.03c5.2,3.49,12.03-6.92,4.85-9.74-7.39-2.91-6.23,8.82-4.85,9.74ZM349.59,113.53c8.32-8.84-2.9-27.29-16.22-19.16-14.25,8.7,1.9,34.37,16.22,19.16ZM394.51,92.86c-10.79,3.15-12.37,18.59-.92,23.59,22.17,9.69,22.48-29.88.92-23.59ZM326.2,164.37c-3.27,3.18-13.41,1.49-17.19,5.27-6.74,9.74,3.25,21.97,13.79,19.83,30.4-6.16,24.67-55.37-.04-65.69.89,6.35,5.03,9.63,5.89,16.56.59,4.79.65,21.01-2.45,24.02ZM416.56,123.81c-17.91,7.63-27.18,35.09-17.99,52.15,9.04,16.78,34.65,17.15,33.2-.1-.94-11.18-13.23-7.41-18.31-10.89-9.46-6.49-4-32.98,3.09-41.17Z"/>
  </g>
  <g id="level_1" data-name="level 1">
    <path class="cls-1" d="M454.63,815.83c-24.48,22.78-67.3,38.28-100.91,35.99-29.2-2-52.53-16.19-77.33-29.79-.79-2.65,2.49-4.42,4.68-6.23,1.94-1.59,3.03-1.35,6.26-4.68,7.78-3.36,27.71-19.49,34.24-25.96,3.88-3.84,12.97-17.91,16.9-19.05l2.01-5.77c-11.91-2.43-20.69-7.31-34.91-18.26-10.58-8.15-19.74-17.98-27.34-29.07l22.69-56.34c45.04-5.54,93.52-11.16,137.68,1.66l22.05,54.78c-12.34,13.32-36.97,44.35-54.45,48.81-1.16.3-2.59.53-4.22.73l-1.01,3.84c1.96,1.06,3.11,2.96,4.67,4.24l8.26,7.75c9.97,14.93,25.66,28.41,40.73,37.35Z"/>
    <path class="cls-1" d="M334.21,765l-44.61,41.42c-1.83.76-1.88,4.29-2.27,4.7-7.28,3.14-4.67,3.58-6.26,4.68-.36.26-7.96,1.4-8.67,1.37-4.71-.19-46.25-31.83-53.04-37.36-15.98-13.01-34.15-26.98-41.48-46.84l-2.93-3.26c-21.07-45.01-52.37-84.14-56.48-135.85l124-1.28c16.84,20.56,27.86,47.37,50.79,62.54,1.97,3.34-3.25,14.64-4.76,18.84-2.13,5.93-13.67,35.36-16.89,37.82l3.22,5.41c.2.07.38.15.53.25,2.86,1.79,10.74,14.75,14.29,18.67,13.36,14.74,28.06,18.99,44.56,28.89Z"/>
    <path class="cls-1" d="M584.12,686.56c-3.4,5.1-28.71,39.88-31.02,41.01-.15.07-.29.13-.44.18l-2.65,2.11c-12.07,24.43-37.46,39.88-58.57,56.31-10.8,8.41-21.03,17.67-31.67,26.29l-6.01-1.26-37.85-33.17-7.34-9.05-.53-2.24c18.22-15.28,40.38-26.83,54.39-47.08l2.33-6.98c-4.35-19.19-9.5-38.28-19.08-55.55,7.11-7.4,14.13-14.73,20.52-22.8,6.41-8.13,22.92-37.13,28.19-40.59,3.95-2.6,37.95-1.75,45.52-1.52l71.08,4.75c1.73,34.44-8.26,61.64-26.87,89.59Z"/>
    <path class="cls-1" d="M288.51,515.23c-6.89,12.47-14.05,25.01-21.78,37-1.05,1.63-3.25,2.23-3.83,3.11-5.16,7.81-14.62,29.91-23.59,31.92l-120.85,5.02c-4.9-4.96,29.87-119.89,40.06-132.98l2.81-5.17c.99-3.78,5.76-10.47,7.13-12.72,21.46-35.29,47.93-53.63,80.83-77.07,3.87-2.75,25.47-16.38,28.52-14.22,8.28,20.12,22.28,38.36,26.73,59.94l-36.06,48.49c-.3.29-.6.54-.92.75,0,0-1.44,6.12-1.62,6,.13.09.26.17.39.27,4.41,3.19,22.2,44.04,22.18,49.66Z"/>
    <path class="cls-1" d="M466.54,622.95l-25.13,31.22c-47.97-11.18-96.92-6.91-145.45-2.53-3.39-.66-5.6-3.85-7.86-6.2-5.3-5.53-37.7-51-37.71-55.5l42.67-67.74,128.05-.21c5.51,0,18.85-2.17,22.98-1.35,11,2.18,16.69,22.56,21.82,31.45,4.42,7.68,23.61,30.85,24.49,36.64s-20.64,27.34-23.86,34.22Z"/>
    <path class="cls-1" d="M466.81,463.55l-21.96,51.78-148.28,1.24-3.1-1.94-21.57-52.58c17.63-14.37,26.22-36.29,41.55-52.32l-.53-4.07c-2.27-1.33-3.52-4.46-4.95-6.73-10.23-16.42-16.72-35.54-28.49-51.24,53.63-32.38,120.48-16.3,176.66.83.57,2.55-.72,4.6-1.68,6.79-4.13,9.54-14.66,26.32-20.46,35.81-1.7,2.78-6.68,11.24-9.57,13.02l-.6,7.14,42.98,52.27Z"/>
    <path class="cls-1" d="M611,592.29c-3,2.99-61.11-4.2-69.65-4.6-14.8-.71-29.71,1.02-44.51.7l-46.16-71.01,20.36-50.15-.44-6.48-37.91-52.19,27.41-55.45,3.06-1.55c20.91,12.6,50.31,21.6,68.1,38.29,7.11,6.67,12.92,16.68,19.51,24.26,11.03,12.7,26.95,24.42,30.5,42.18l2.9,3.39c18.85,41.75,27.1,86.75,26.83,132.61Z"/>
  </g>
</svg>